<?xml version="1.0" encoding="UTF-8"?>
<svg width="539" height="65" viewBox="0 0 539 65" fill="none" xmlns="http://www.w3.org/2000/svg">
  <path d="M25.2457 0.56311L0 10.0971V29.5183C0 45.7145 10.8532 60.7118 25.2457 64.4368C39.6458 60.717 50.499 45.7119 50.499 29.5183V10.0971L25.2457 0.56311ZM45.3859 29.5183C45.3859 42.8009 37.0074 55.204 25.4606 59.0181L25.2431 59.0835L25.0256 59.0181C13.4865 55.204 5.108 42.8009 5.108 29.5183V13.686L25.2406 6.07091L25.3045 6.09971L45.3808 13.686V29.5183H45.3859Z" fill="#DAC46F"/>
  <path d="M12.4399 23.8064H35.7483V29.6492H12.8954V43.8323H17.9574V34.7618H40.8103V18.6938H9.69141L12.4399 23.8064Z" fill="#DAC46F"/>
  <path d="M69.251 12.5881H87.1788C91.2093 12.5881 94.389 13.6293 96.7146 15.7085C99.0403 17.7909 100.203 20.8726 100.203 24.9601C100.203 27.7098 99.6769 30.0049 98.6243 31.8424C97.5718 33.683 96.0623 35.0659 94.1022 35.9943C92.1421 36.9227 89.8322 37.3869 87.1819 37.3869H77.6461V52.4343H69.2541V12.5881H69.251ZM88.8647 29.7277C89.7376 29.3731 90.4089 28.809 90.8816 28.0289C91.3543 27.2488 91.5906 26.2269 91.5906 24.9633C91.5906 23.142 91.0801 21.8139 90.0654 20.979C89.0475 20.1441 87.5601 19.7251 85.5968 19.7251H77.6429V30.2596H85.5968C86.9046 30.2596 87.995 30.0823 88.8647 29.7309V29.7277Z" fill="#000000"/>
  <path d="M104.665 12.5881H122.266C126.551 12.5881 129.901 13.5745 132.318 15.5409C134.732 17.5105 135.942 20.3343 135.942 24.0124C135.942 25.7595 135.624 27.3101 134.987 28.6672C134.351 30.0243 133.453 31.1461 132.29 32.039C131.127 32.9319 129.785 33.5637 128.259 33.9344V34.0473C130.219 34.418 131.71 35.3206 132.728 36.7518C133.746 38.1831 134.426 39.7626 134.77 41.4904C135.113 43.2182 135.359 45.2523 135.504 47.5926C135.615 49.0786 135.712 50.1488 135.804 50.7968C135.895 51.4479 136.103 51.8283 136.431 51.9411V52.444H127.657C127.402 52.1829 127.238 51.7381 127.166 51.1062C127.093 50.4744 127.037 49.5461 127.002 48.3179C126.929 46.2387 126.766 44.5012 126.51 43.1054C126.255 41.7128 125.675 40.4943 124.768 39.4531C123.86 38.4152 122.48 37.8929 120.627 37.8929H113.054V52.4408H104.662V12.5881H104.665ZM124.364 30.1726C125.398 29.747 126.179 29.112 126.706 28.2771C127.232 27.4422 127.497 26.4107 127.497 25.1825C127.497 23.3258 126.933 21.9493 125.808 21.0596C124.683 20.1667 122.956 19.7218 120.63 19.7218H113.057V30.814H120.576C122.067 30.814 123.328 30.6013 124.364 30.1726Z" fill="#000000"/>
  <path d="M141.501 12.5881H170.326V19.7218H149.893V28.3061H167.6V35.4398H149.893V45.3071H170.707V52.4408H141.501V12.5881Z" fill="#000000"/>
  <path d="M176.046 12.5881H186.508L195.77 40.2332H195.88L205.035 12.5881H215.497V52.4408H207.543V25.3534H207.433L198.88 52.4408H192.722L184.167 25.3534H184.056V52.4408H176.046V12.5881Z" fill="#000000"/>
  <path d="M222.524 12.5881H230.916V52.4408H222.524V12.5881Z" fill="#000000"/>
  <path d="M244.347 51.5769C242.006 50.4067 240.288 48.7144 239.198 46.5062C238.108 44.2949 237.562 41.5936 237.562 38.3958V12.5881H246.008V38.3958C246.008 41.1068 246.616 43.0861 247.833 44.3304C249.049 45.5746 250.93 46.1968 253.473 46.1968C256.017 46.1968 257.904 45.5746 259.139 44.3304C260.375 43.0861 260.992 41.1068 260.992 38.3958V12.5881H269.384V38.3958C269.384 43.2279 268.121 46.9221 265.597 49.488C263.072 52.0507 259.029 53.3337 253.473 53.3337C249.733 53.3337 246.689 52.747 244.347 51.5769Z" fill="#000000"/>
  <path d="M276.084 12.5881H286.546L295.808 40.2332H295.918L305.073 12.5881H315.535V52.4408H307.581V25.3534H307.471L298.915 52.4408H292.758L284.202 25.3534H284.091V52.4408H276.081V12.5881H276.084Z" fill="#000000"/>
  <path d="M329.807 50.5454C327.085 48.7627 324.958 46.3 323.432 43.1602C321.907 40.0205 321.145 36.4649 321.145 32.4871C321.145 28.5092 321.907 24.9537 323.432 21.8139C324.958 18.6742 327.082 16.2211 329.807 14.4578C332.533 12.6945 335.656 11.8113 339.179 11.8113C342.268 11.8113 345.009 12.4334 347.408 13.6777C349.806 14.922 351.712 16.6047 353.127 18.7226C354.545 20.8404 355.415 23.1807 355.743 25.7467H350.622C350.332 24.2219 349.787 22.7552 348.986 21.3433C348.186 19.9314 346.979 18.7322 345.362 17.749C343.746 16.7659 341.685 16.2727 339.179 16.2727C336.236 16.2727 333.803 17.0334 331.878 18.5582C329.952 20.0829 328.534 22.0686 327.627 24.5217C326.719 26.9748 326.265 29.631 326.265 32.4903C326.265 35.3496 326.719 38.0187 327.627 40.4879C328.534 42.9604 329.952 44.9557 331.878 46.4805C333.803 48.0052 336.236 48.766 339.179 48.766C341.757 48.766 343.884 48.247 345.555 47.2058C347.225 46.1678 348.46 44.8365 349.26 43.2215C350.058 41.6033 350.515 39.8851 350.622 38.067H355.743C355.453 41.0037 354.599 43.6212 353.181 45.926C351.766 48.2309 349.856 50.0232 347.461 51.3061C345.063 52.5891 342.302 53.2274 339.179 53.2274C335.656 53.2274 332.533 52.3344 329.807 50.5518V50.5454Z" fill="#DAC46F"/>
  <path d="M371.165 12.5881H376.667L391.16 52.4408H385.876L382.444 42.4639H365.282L361.85 52.4408H356.783L371.168 12.5881H371.165ZM380.865 38.0058L373.945 17.2171H373.834L366.914 38.0058H380.862H380.865Z" fill="#DAC46F"/>
  <path d="M395.522 12.5881H411.159C415.41 12.5881 418.64 13.5745 420.858 15.5409C423.074 17.5105 424.183 20.3536 424.183 24.0672C424.183 25.7015 423.883 27.1972 423.285 28.5543C422.686 29.9115 421.848 31.0429 420.779 31.9552C419.708 32.8674 418.482 33.4896 417.102 33.8216V33.9344C418.917 34.3051 420.297 35.2174 421.243 36.6648C422.188 38.1154 422.812 39.7013 423.121 41.4292C423.43 43.157 423.657 45.2297 423.802 47.6442C423.912 49.1689 424.019 50.2649 424.129 50.9322C424.24 51.6027 424.438 51.9927 424.728 52.1023V52.4376H419.443C419.226 52.2151 419.081 51.7767 419.008 51.1288C418.936 50.4809 418.898 49.5783 418.898 48.4243C418.826 46.0453 418.652 44.0499 418.381 42.4317C418.11 40.8135 417.445 39.3951 416.393 38.1669C415.34 36.942 413.739 36.3263 411.597 36.3263H400.428V52.4343H395.525V12.5881H395.522ZM415.028 30.9817C416.409 30.3885 417.461 29.515 418.189 28.3609C418.914 27.2101 419.279 25.8143 419.279 24.18C419.279 21.801 418.561 20.0184 417.127 18.8289C415.69 17.6394 413.377 17.0463 410.182 17.0463H400.428V31.8714H410.018C411.978 31.8714 413.651 31.5748 415.031 30.9784L415.028 30.9817Z" fill="#DAC46F"/>
  <path d="M436.495 51.5221C433.99 50.3906 432.001 48.7627 430.53 46.6449C429.058 44.527 428.232 41.9997 428.05 39.0631H433.17C433.353 40.9972 433.861 42.6863 434.696 44.1337C435.531 45.5843 436.785 46.7254 438.455 47.5603C440.125 48.3952 442.268 48.8143 444.884 48.8143C447.137 48.8143 448.924 48.5081 450.251 47.8956C451.577 47.2831 452.51 46.4385 453.055 45.3587C453.6 44.282 453.871 43.0184 453.871 41.5678C453.871 39.8593 453.509 38.5409 452.781 37.6093C452.053 36.6809 451.038 35.9653 449.731 35.4624C448.423 34.9595 446.387 34.3567 443.626 33.6508C443.371 33.6153 442.99 33.5218 442.483 33.3735C439.829 32.703 437.642 32.0164 435.915 31.3105C434.188 30.6045 432.72 29.5278 431.5 28.0773C430.284 26.6267 429.676 24.7151 429.676 22.3361C429.676 20.2183 430.192 18.3712 431.229 16.7916C432.263 15.2121 433.772 13.9871 435.751 13.1136C437.73 12.24 440.1 11.8048 442.861 11.8048C445.804 11.8048 448.344 12.298 450.49 13.2812C452.633 14.2676 454.322 15.6956 455.557 17.5717C456.793 19.4478 457.517 21.7237 457.738 24.3992H452.617C452.255 21.6495 451.309 19.5961 449.784 18.239C448.259 16.8819 445.971 16.2049 442.917 16.2049C440.229 16.2049 438.203 16.7078 436.842 17.7103C435.48 18.7129 434.8 20.1828 434.8 22.1137C434.8 23.6384 435.209 24.844 436.026 25.737C436.842 26.6299 437.85 27.2972 439.051 27.742C440.251 28.1869 441.918 28.6704 444.065 29.1926C444.209 29.2313 444.354 29.2667 444.499 29.3054C444.61 29.3441 444.717 29.3796 444.827 29.4182C447.988 30.1629 450.522 30.9236 452.428 31.7037C454.335 32.4838 455.907 33.6475 457.142 35.1884C458.378 36.7292 458.995 38.802 458.995 41.4034C458.995 43.6695 458.494 45.6971 457.495 47.4798C456.496 49.2624 454.962 50.6646 452.891 51.6897C450.821 52.7116 448.224 53.2209 445.101 53.2209C441.978 53.2209 438.997 52.6535 436.492 51.5221H436.495Z" fill="#DAC46F"/>
  <path d="M463.25 47.0897H468.481V52.4408H463.25V47.0897Z" fill="#DAC46F"/>
  <path d="M475.073 12.5881H481.067L500.52 45.3071H500.63V12.5881H505.534V52.4408H499.54L480.087 19.7218H479.977V52.4408H475.073V12.5881Z" fill="#DAC46F"/>
  <path d="M513.595 12.5881H518.498V47.9794H538.931V52.4376H513.595V12.5881Z" fill="#DAC46F"/>
</svg> 